<?xml version="1.0" encoding="UTF-8" standalone="no"?>
<svg
   id="图层_1"
   data-name="图层 1"
   viewBox="0 0 1168.4 210.39999"
   version="1.1"
   sodipodi:docname="logo-black.svg"
   inkscape:version="1.1.1 (3bf5ae0d25, 2021-09-20)"
   width="1168.4"
   height="210.39999"
   xmlns:inkscape="http://www.inkscape.org/namespaces/inkscape"
   xmlns:sodipodi="http://sodipodi.sourceforge.net/DTD/sodipodi-0.dtd"
   xmlns="http://www.w3.org/2000/svg"
   xmlns:svg="http://www.w3.org/2000/svg"
   xmlns:rdf="http://www.w3.org/1999/02/22-rdf-syntax-ns#"
   xmlns:cc="http://creativecommons.org/ns#"
   xmlns:dc="http://purl.org/dc/elements/1.1/">
  <sodipodi:namedview
     id="namedview37"
     pagecolor="#ffffff"
     bordercolor="#666666"
     borderopacity="1.0"
     inkscape:pageshadow="2"
     inkscape:pageopacity="0.0"
     inkscape:pagecheckerboard="0"
     showgrid="false"
     inkscape:zoom="0.5"
     inkscape:cx="174"
     inkscape:cy="-262"
     inkscape:window-width="2516"
     inkscape:window-height="1403"
     inkscape:window-x="1964"
     inkscape:window-y="0"
     inkscape:window-maximized="1"
     inkscape:current-layer="g1126"
     scale-x="1"
     units="px" />
  <defs
     id="defs4">
    <style
       id="style2">.cls-1{fill:#e7352c;}.cls-2{fill:#333;}</style>
  </defs>
  <title
     id="title6">导航栏-菜单-logo</title>
  <g
     id="g1126"
     transform="matrix(9.8692872,0,0,9.8692872,7.0715336,2.6528281)">
    <g
       id="g1241"
       transform="translate(0,-0.10132444)">
      <path
         class="cls-1"
         d="M 6.93,15.65 A 1.48,1.48 0 1 1 5.45,14.17 1.48,1.48 0 0 1 6.93,15.65"
         id="path8" />
      <path
         class="cls-1"
         d="m 19.84,14.11 a 15.34,15.34 0 0 0 -13,-13 9.73,9.73 0 0 0 -2.15,1.55 v 1.43 a 12.18,12.18 0 0 1 12.17,12.16 h 1.43 a 10.25,10.25 0 0 0 1.55,-2.14"
         id="path10" />
      <path
         class="cls-1"
         d="m 21,9.62 c 7.2e-5,-5.3325669 -4.337505,-9.64771604 -9.67,-9.62 -0.34,0 -0.67,0 -1,0.05 l -0.22,0.64 c 4.742704,1.6620035 8.473318,5.3889383 10.14,10.13 l 0.64,-0.23 c 0,-0.32 0,0.36 0,0"
         id="path12"
         sodipodi:nodetypes="ccccccc" />
      <path
         class="cls-1"
         d="M 11.44,21 A 11.44,11.44 0 0 1 0,9.61 11.36,11.36 0 0 1 3.35,1.52 L 4,2.13 a 10.56,10.56 0 0 0 0,15 10.56,10.56 0 0 0 15,0 l 0.61,0.61 A 11.35,11.35 0 0 1 11.44,21"
         id="path14" />
      <path
         class="cls-1"
         d="M 11.31,16.91 A 6.65,6.65 0 0 0 8.7,11 6.51,6.51 0 0 0 5.35,9.64 0.61,0.61 0 0 1 4.82,9 0.59,0.59 0 0 1 5.47,8.46 a 7.85,7.85 0 0 1 7,8.58 6.85,6.85 0 0 1 -0.26,1.35 l 1.74,0.49 a 9.66,9.66 0 0 0 1.5,-0.57 10.64,10.64 0 0 0 0.19,-2.05 11,11 0 0 0 -9.33,-10.86 4.84,4.84 0 0 0 -1.75,0 3.81,3.81 0 0 0 -1.89,1.17 3.74,3.74 0 0 0 1.67,6 8.66,8.66 0 0 0 0.94,0.17 v 0 A 3.51,3.51 0 0 1 8.2,16.2 3.47,3.47 0 0 1 7.64,18.09 l 1.2,0.77 a 8.91,8.91 0 0 0 1.8,0.3 6.58,6.58 0 0 0 0.66,-2.3"
         id="path16" />
      <rect
         class="cls-2"
         x="104.18"
         y="3.1700001"
         width="2.21"
         height="14.7"
         id="rect18" />
      <path
         class="cls-2"
         d="M 68.39,11.73 A 2.51,2.51 0 0 0 69.85,9.32 V 5.81 A 2.64,2.64 0 0 0 69.07,3.86 2.6,2.6 0 0 0 67.29,3.16 h -6.38 v 14.73 h 2.22 V 12 h 2.27 a 2,2 0 0 1 2,1.74 l 0.87,4.17 h 2.42 L 69.75,14 A 3,3 0 0 0 68.39,11.78 M 63.13,5.24 v 0 h 3.8 a 0.75,0.75 0 0 1 0.71,0.84 v 3 a 0.75,0.75 0 0 1 -0.71,0.84 h -3.8 z"
         id="path20" />
      <path
         class="cls-2"
         d="m 29.09,3.87 a 2.67,2.67 0 0 0 -0.78,2 v 9.4 a 2.64,2.64 0 0 0 0.78,1.95 2.62,2.62 0 0 0 1.78,0.7 h 6 v -2.1 h -5.6 A 0.76,0.76 0 0 1 30.55,14.98 V 11.2 H 36 V 9.14 H 30.52 V 6.08 a 0.76,0.76 0 0 1 0.72,-0.84 h 5.6 V 3.17 h -6 a 2.66,2.66 0 0 0 -1.78,0.7"
         id="path22" />
      <path
         class="cls-2"
         d="m 111.24,5.24 h 5.6 V 3.17 h -6 a 2.66,2.66 0 0 0 -1.78,0.7 2.71,2.71 0 0 0 -0.78,2 v 12 h 2.21 V 11.2 H 116 V 9.14 h -5.52 V 6.08 a 0.76,0.76 0 0 1 0.72,-0.84"
         id="path24" />
      <path
         class="cls-2"
         d="M 45.2,9.14 H 41.77 A 0.79,0.79 0 0 1 41,8.35 V 6.08 A 0.75,0.75 0 0 1 41.71,5.24 H 47.2 V 3.17 h -5.87 a 2.66,2.66 0 0 0 -1.78,0.7 2.67,2.67 0 0 0 -0.78,2 v 3.01 a 2.59,2.59 0 0 0 2.58,2.59 h 3.44 a 0.79,0.79 0 0 1 0.79,0.79 V 15 a 0.76,0.76 0 0 1 -0.72,0.84 h -6.09 v 2.07 h 6.46 a 2.55,2.55 0 0 0 2.56,-2.66 v -3.5 A 2.58,2.58 0 0 0 45.2,9.14"
         id="path26" />
      <path
         class="cls-2"
         d="m 72.65,3.87 a 2.67,2.67 0 0 0 -0.78,2 v 9.4 a 2.64,2.64 0 0 0 0.78,1.95 2.62,2.62 0 0 0 1.78,0.7 h 6 v -2.1 h -5.6 A 0.75,0.75 0 0 1 74.12,14.98 V 11.2 h 5.51 V 9.14 H 74.08 V 6.08 a 0.75,0.75 0 0 1 0.71,-0.84 h 5.6 V 3.17 h -6 a 2.66,2.66 0 0 0 -1.78,0.7"
         id="path28" />
      <path
         class="cls-2"
         d="M 88.76,9.14 H 85.33 A 0.79,0.79 0 0 1 84.54,8.35 V 6.08 a 0.75,0.75 0 0 1 0.71,-0.84 h 5.51 V 3.17 h -5.88 a 2.64,2.64 0 0 0 -1.77,0.7 2.67,2.67 0 0 0 -0.78,2 v 3.01 a 2.58,2.58 0 0 0 2.58,2.59 h 3.43 a 0.79,0.79 0 0 1 0.79,0.79 V 15 a 0.75,0.75 0 0 1 -0.71,0.84 h -6.09 v 2.07 h 6.46 a 2.6,2.6 0 0 0 1.77,-0.71 2.63,2.63 0 0 0 0.79,-2 V 11.7 A 2.58,2.58 0 0 0 88.76,9.12"
         id="path30" />
      <path
         class="cls-2"
         d="M 99.6,9.14 H 96.17 A 0.79,0.79 0 0 1 95.38,8.35 V 6.08 a 0.75,0.75 0 0 1 0.71,-0.84 h 5.51 V 3.17 h -5.87 a 2.66,2.66 0 0 0 -1.78,0.7 2.67,2.67 0 0 0 -0.78,2 v 3.01 a 2.59,2.59 0 0 0 2.58,2.59 h 3.44 a 0.79,0.79 0 0 1 0.79,0.79 V 15 a 0.76,0.76 0 0 1 -0.72,0.84 h -6.09 v 2.07 h 6.46 a 2.55,2.55 0 0 0 2.56,-2.66 v -3.5 A 2.58,2.58 0 0 0 99.6,9.14"
         id="path32" />
      <path
         class="cls-2"
         d="M 56.48,3.16 H 49.79 V 17.89 H 52 v -5.72 h 4.48 a 2.57,2.57 0 0 0 1.77,-0.7 2.63,2.63 0 0 0 0.79,-2 V 5.81 A 2.65,2.65 0 0 0 58.25,3.86 2.57,2.57 0 0 0 56.48,3.16 m 0.34,6.11 a 0.75,0.75 0 0 1 -0.71,0.84 H 52 V 5.22 h 4.11 a 0.75,0.75 0 0 1 0.71,0.84 z"
         id="path34" />
    </g>
  </g>
  <metadata
     id="metadata854">
    <rdf:RDF>
      <cc:Work
         rdf:about="">
        <dc:title>导航栏-菜单-logo</dc:title>
      </cc:Work>
    </rdf:RDF>
  </metadata>
</svg>
